<?xml version="1.0" encoding="UTF-8" standalone="no"?>
<!-- Created with Inkscape (http://www.inkscape.org/) -->

<svg
   width="300"
   height="300"
   viewBox="0 0 300.00001 300.00001"
   version="1.1"
   id="svg5"
   inkscape:version="1.3.2 (091e20e, 2023-11-25, custom)"
   sodipodi:docname="ums_logo.svg"
   inkscape:export-filename="ums_logo.png"
   inkscape:export-xdpi="64"
   inkscape:export-ydpi="64"
   xmlns:inkscape="http://www.inkscape.org/namespaces/inkscape"
   xmlns:sodipodi="http://sodipodi.sourceforge.net/DTD/sodipodi-0.dtd"
   xmlns="http://www.w3.org/2000/svg"
   xmlns:svg="http://www.w3.org/2000/svg">
  <sodipodi:namedview
     id="namedview7"
     pagecolor="#ffffff"
     bordercolor="#cccccc"
     borderopacity="1"
     inkscape:pageshadow="0"
     inkscape:pageopacity="1"
     inkscape:pagecheckerboard="0"
     inkscape:document-units="px"
     showgrid="false"
     units="px"
     inkscape:showpageshadow="0"
     inkscape:deskcolor="#d1d1d1"
     inkscape:zoom="1.2716667"
     inkscape:cx="-26.343381"
     inkscape:cy="101.83486"
     inkscape:window-width="1920"
     inkscape:window-height="1001"
     inkscape:window-x="-9"
     inkscape:window-y="-9"
     inkscape:window-maximized="1"
     inkscape:current-layer="layer1" />
  <defs
     id="defs2" />
  <g
     inkscape:label="圖層 1"
     inkscape:groupmode="layer"
     id="layer1">
    <path
       id="path1"
       style="fill:#666666;stroke-width:1.56691;stroke-linecap:round;stroke-linejoin:round"
       d="M 80.996071 -38.535784 C 77.913345 -38.535784 15.794158 -2.671557 14.252795 -0.001837845 C 12.711432 2.6678813 12.711432 74.396335 14.252795 77.066054 C 15.794158 79.735774 77.913345 115.6 80.996071 115.6 C 84.078797 115.6 146.19798 79.735774 147.73935 77.066054 C 149.28071 74.396335 149.28071 2.6678812 147.73935 -0.001837845 C 146.19798 -2.6715569 84.078797 -38.535784 80.996071 -38.535784 z M 80.996071 -29.643413 C 83.723098 -29.643413 138.67496 2.0821628 140.03847 4.4438374 C 141.40199 6.805512 141.40199 70.258704 140.03847 72.620379 C 138.67496 74.982054 83.723098 106.70763 80.996071 106.70763 C 78.269044 106.70763 23.317181 74.982054 21.953668 72.620379 C 20.590154 70.258705 20.590154 6.8055121 21.953668 4.4438374 C 23.317181 2.0821627 78.269044 -29.643413 80.996071 -29.643413 z "
       transform="matrix(1.9146065,0,0,1.9146065,-5.0756037,76.226175)" />
    <text
       xml:space="preserve"
       style="font-style:normal;font-variant:normal;font-weight:bold;font-stretch:normal;font-size:186.667px;line-height:1.25;font-family:'Noto Sans TC';-inkscape-font-specification:'Noto Sans TC Bold';text-align:center;text-anchor:middle;fill:#4d4d4d"
       x="149.99992"
       y="225.85345"
       id="text2"><tspan
         sodipodi:role="line"
         id="tspan2"
         x="149.99992"
         y="225.85345">U</tspan></text>
  </g>
</svg>
